<?xml version="1.0" encoding="utf-8"?>
<!-- Generator: Adobe Illustrator 23.0.1, SVG Export Plug-In . SVG Version: 6.00 Build 0)  -->
<svg version="1.1" id="Layer_1" xmlns="http://www.w3.org/2000/svg" xmlns:xlink="http://www.w3.org/1999/xlink" x="0px" y="0px"
	 viewBox="0 0 457.9 84.1" style="enable-background:new 0 0 457.9 84.1;" xml:space="preserve">
<style type="text/css">
	.st0{fill:url(#SVGID_1_);}
	.st1{fill:url(#SVGID_2_);}
	.st2{fill:url(#SVGID_3_);}
</style>
<linearGradient id="SVGID_1_" gradientUnits="userSpaceOnUse" x1="91.1775" y1="59.3056" x2="91.1775" y2="59.3056">
	<stop  offset="0" style="stop-color:#E01E64"/>
	<stop  offset="1" style="stop-color:#000000"/>
</linearGradient>
<path class="st0" d="M91.2,59.3"/>
<linearGradient id="SVGID_2_" gradientUnits="userSpaceOnUse" x1="25.2666" y1="14.6039" x2="53.798" y2="32.6238">
	<stop  offset="0" style="stop-color:#F33B6E"/>
	<stop  offset="0.2565" style="stop-color:#EC3A6D"/>
	<stop  offset="0.6392" style="stop-color:#D73669"/>
	<stop  offset="1" style="stop-color:#BE3165"/>
</linearGradient>
<path class="st1" d="M73.2,0H56.6H28C12.6,0,0,12.6,0,28v0c0,15.5,12.6,28,28,28"/>
<linearGradient id="SVGID_3_" gradientUnits="userSpaceOnUse" x1="90.0868" y1="34.6181" x2="118.6182" y2="52.638" gradientTransform="matrix(-1 0 0 -1 142.9845 104.1302)">
	<stop  offset="6.732959e-02" style="stop-color:#E42465"/>
	<stop  offset="0.737" style="stop-color:#BE3165"/>
</linearGradient>
<path class="st2" d="M5,84.1h16.5h28.6c15.5,0,28-12.6,28-28v0c0-15.5-12.6-28-28-28"/>
<g>
	<path d="M141.1,53.2c0,2.1-0.4,4-1.2,5.8c-0.8,1.7-1.8,3.2-3.2,4.5c-1.4,1.2-3,2.2-4.9,2.9c-1.9,0.7-3.9,1-6.2,1
		c-2.3,0-4.4-0.3-6.4-1c-1.9-0.7-3.6-1.6-5-2.9c-1.4-1.2-2.5-2.7-3.3-4.5c-0.8-1.7-1.2-3.7-1.2-5.8h7.5c0,2.3,0.8,4.1,2.3,5.4
		s3.6,1.9,6.1,1.9c2.4,0,4.4-0.6,5.8-1.9c1.4-1.2,2.2-3,2.2-5.4c0-2-0.6-3.5-1.8-4.6c-1.2-1-2.6-1.9-4.4-2.5
		c-1.8-0.6-3.7-1.2-5.7-1.8c-2-0.6-3.9-1.3-5.7-2.2c-1.8-0.9-3.2-2.2-4.4-3.9c-1.2-1.7-1.8-3.9-1.8-6.9c0-2.1,0.4-3.9,1.2-5.6
		c0.8-1.7,1.8-3.1,3.2-4.3c1.3-1.2,3-2.1,4.9-2.8c1.9-0.6,3.9-1,6.1-1c2.3,0,4.3,0.3,6.3,1c1.9,0.7,3.6,1.6,4.9,2.9
		c1.4,1.2,2.4,2.7,3.2,4.5c0.8,1.8,1.2,3.7,1.2,5.8h-7.4c0-2.3-0.7-4.1-2.2-5.4c-1.5-1.3-3.5-1.9-5.9-1.9c-2.4,0-4.4,0.6-5.8,1.7
		c-1.4,1.2-2.1,2.9-2.1,5.1c0,1.7,0.6,3,1.8,3.8c1.2,0.9,2.6,1.6,4.4,2.3c1.8,0.6,3.7,1.2,5.7,1.8c2,0.6,3.9,1.4,5.7,2.4
		c1.8,1.1,3.2,2.5,4.4,4.3C140.5,47.8,141.1,50.2,141.1,53.2z"/>
	<path d="M167.4,37.2h-11.2v17.3c0,3.6,1.8,5.5,5.5,5.5h5.8v6.6h-6.3c-8.1,0-12.2-4-12.2-12.1V37.2h-4.2v-6.5h4.2V18.4h7.2v12.2
		h11.2V37.2z"/>
	<path d="M187.5,67.3c-2.7,0-5.2-0.5-7.5-1.4c-2.3-0.9-4.2-2.2-5.9-3.8c-1.7-1.7-2.9-3.6-3.9-5.9c-0.9-2.3-1.4-4.8-1.4-7.5
		c0-2.7,0.5-5.2,1.4-7.5c0.9-2.3,2.2-4.3,3.9-5.9c1.7-1.7,3.6-2.9,5.9-3.8c2.3-0.9,4.8-1.4,7.5-1.4c2.3,0,4.5,0.4,6.4,1.2
		c1.9,0.8,3.6,1.9,5.1,3.4v-3.9h7.2v36H199v-3.9c-1.4,1.5-3.1,2.6-5.1,3.4C192,66.9,189.8,67.3,187.5,67.3z M187.5,60.7
		c3.5,0,6.2-1.1,8.3-3.3c2.1-2.2,3.2-5.1,3.2-8.8s-1.1-6.6-3.2-8.8c-2.1-2.2-4.9-3.3-8.3-3.3c-1.7,0-3.3,0.3-4.7,0.9
		c-1.4,0.6-2.6,1.4-3.6,2.5c-1,1.1-1.8,2.4-2.3,3.8c-0.6,1.5-0.8,3.1-0.8,5c0,3.6,1.1,6.6,3.2,8.8C181.2,59.6,184,60.7,187.5,60.7z"
		/>
	<path d="M225.9,78.8h-7.6l4.9-12.4L209,30.7h7.7L227,57.3l10.3-26.7h7.7L225.9,78.8z"/>
	<path d="M278.1,53.2c0,2.1-0.4,4-1.2,5.8s-1.8,3.2-3.2,4.5c-1.4,1.2-3,2.2-4.9,2.9c-1.9,0.7-3.9,1-6.2,1c-2.3,0-4.4-0.3-6.4-1
		c-1.9-0.7-3.6-1.6-5-2.9c-1.4-1.2-2.5-2.7-3.3-4.5c-0.8-1.7-1.2-3.7-1.2-5.8h7.5c0,2.3,0.8,4.1,2.3,5.4c1.5,1.3,3.6,1.9,6.1,1.9
		c2.4,0,4.4-0.6,5.8-1.9c1.4-1.2,2.2-3,2.2-5.4c0-2-0.6-3.5-1.8-4.6c-1.2-1-2.6-1.9-4.4-2.5c-1.8-0.6-3.7-1.2-5.7-1.8
		c-2-0.6-3.9-1.3-5.7-2.2c-1.8-0.9-3.2-2.2-4.4-3.9c-1.2-1.7-1.8-3.9-1.8-6.9c0-2.1,0.4-3.9,1.2-5.6c0.8-1.7,1.8-3.1,3.2-4.3
		c1.3-1.2,3-2.1,4.9-2.8s3.9-1,6.1-1c2.3,0,4.3,0.3,6.3,1c1.9,0.7,3.6,1.6,4.9,2.9c1.4,1.2,2.4,2.7,3.2,4.5c0.8,1.8,1.2,3.7,1.2,5.8
		h-7.4c0-2.3-0.7-4.1-2.2-5.4c-1.5-1.3-3.5-1.9-5.9-1.9s-4.4,0.6-5.8,1.7s-2.1,2.9-2.1,5.1c0,1.7,0.6,3,1.8,3.8
		c1.2,0.9,2.6,1.6,4.4,2.3c1.8,0.6,3.7,1.2,5.7,1.8s3.9,1.4,5.7,2.4c1.8,1.1,3.2,2.5,4.4,4.3C277.5,47.8,278.1,50.2,278.1,53.2z"/>
	<path d="M319.1,48.6c0,1-0.1,1.9-0.2,2.7h-29.8c0.5,3,1.8,5.3,3.8,7c2,1.7,4.5,2.6,7.5,2.6c1.8,0,3.5-0.3,5-0.9
		c1.5-0.6,2.8-1.6,3.8-3h8c-0.6,1.6-1.4,3-2.5,4.3c-1.1,1.3-2.3,2.3-3.8,3.2c-1.5,0.9-3.1,1.6-4.9,2c-1.8,0.5-3.6,0.7-5.6,0.7
		c-2.7,0-5.2-0.5-7.5-1.4c-2.3-0.9-4.2-2.2-5.9-3.8c-1.7-1.7-2.9-3.6-3.9-5.9s-1.4-4.8-1.4-7.5c0-2.7,0.5-5.2,1.4-7.5
		s2.2-4.3,3.9-5.9c1.7-1.7,3.6-2.9,5.9-3.8c2.3-0.9,4.8-1.4,7.5-1.4s5.2,0.5,7.5,1.4c2.3,0.9,4.3,2.2,5.9,3.8
		c1.7,1.7,2.9,3.6,3.8,5.9C318.7,43.4,319.1,45.9,319.1,48.6z M300.4,36.3c-2.9,0-5.3,0.8-7.3,2.4c-2,1.6-3.3,3.8-3.9,6.5h22.3
		c-0.6-2.7-1.8-4.9-3.8-6.5C305.8,37.1,303.3,36.3,300.4,36.3z"/>
	<path d="M352.4,45.8c-0.5-2.9-1.8-5.1-3.8-6.8c-2-1.7-4.5-2.5-7.4-2.5c-1.7,0-3.3,0.3-4.7,0.9c-1.4,0.6-2.6,1.4-3.6,2.5
		c-1,1.1-1.8,2.4-2.3,3.8c-0.6,1.5-0.8,3.1-0.8,5c0,3.6,1.1,6.6,3.2,8.8c2.1,2.2,4.9,3.3,8.3,3.3c3,0,5.5-0.8,7.4-2.4
		c2-1.6,3.2-3.9,3.8-6.8h7.3c-0.3,2.3-0.9,4.5-2,6.5c-1,2-2.3,3.6-4,5c-1.6,1.4-3.5,2.4-5.6,3.2c-2.1,0.8-4.4,1.2-6.9,1.2
		c-2.7,0-5.2-0.5-7.5-1.4c-2.3-0.9-4.2-2.2-5.9-3.8c-1.7-1.7-2.9-3.6-3.9-5.9s-1.4-4.8-1.4-7.5c0-2.7,0.5-5.2,1.4-7.5
		s2.2-4.3,3.9-5.9c1.7-1.7,3.6-2.9,5.9-3.8c2.3-0.9,4.8-1.4,7.5-1.4c2.5,0,4.8,0.4,6.9,1.2c2.1,0.8,4,1.8,5.6,3.2c1.6,1.4,3,3.1,4,5
		c1,1.9,1.7,4.1,2,6.4H352.4z"/>
	<path d="M364,30.7h7.2v21.6c0,2.5,0.7,4.6,2.2,6.1c1.5,1.6,3.5,2.3,6,2.3c2.6,0,4.6-0.8,6.1-2.3c1.5-1.6,2.2-3.6,2.2-6.1V30.7h7.2
		v36h-7.2v-3.2c-1.2,1.2-2.5,2.2-4.1,2.9c-1.6,0.7-3.3,1-5.2,1c-2.2,0-4.1-0.4-5.9-1.1c-1.8-0.7-3.3-1.8-4.6-3.1
		c-1.3-1.3-2.3-2.9-2.9-4.8c-0.7-1.8-1-3.9-1-6.1V30.7z"/>
	<path d="M400.6,30.7h7.2v4.9l11.2-4.9v7.4l-11.2,4.6v23.9h-7.2V30.7z"/>
	<path d="M457.8,48.6c0,1-0.1,1.9-0.2,2.7h-29.8c0.5,3,1.8,5.3,3.8,7c2,1.7,4.5,2.6,7.5,2.6c1.8,0,3.5-0.3,5-0.9
		c1.5-0.6,2.8-1.6,3.8-3h8c-0.6,1.6-1.4,3-2.5,4.3c-1.1,1.3-2.3,2.3-3.8,3.2c-1.5,0.9-3.1,1.6-4.9,2c-1.8,0.5-3.6,0.7-5.6,0.7
		c-2.7,0-5.2-0.5-7.5-1.4c-2.3-0.9-4.2-2.2-5.9-3.8c-1.7-1.7-2.9-3.6-3.9-5.9s-1.4-4.8-1.4-7.5c0-2.7,0.5-5.2,1.4-7.5
		s2.2-4.3,3.9-5.9c1.7-1.7,3.6-2.9,5.9-3.8c2.3-0.9,4.8-1.4,7.5-1.4s5.2,0.5,7.5,1.4c2.3,0.9,4.3,2.2,5.9,3.8
		c1.7,1.7,2.9,3.6,3.8,5.9C457.3,43.4,457.8,45.9,457.8,48.6z M439.1,36.3c-2.9,0-5.3,0.8-7.3,2.4c-2,1.6-3.3,3.8-3.9,6.5h22.3
		c-0.6-2.7-1.8-4.9-3.8-6.5C444.5,37.1,442,36.3,439.1,36.3z"/>
</g>
</svg>
